<svg xmlns="http://www.w3.org/2000/svg" xmlns:xlink="http://www.w3.org/1999/xlink" width="180" zoomAndPan="magnify" viewBox="0 0 135 44.999999" height="60" preserveAspectRatio="xMidYMid meet" version="1.0"><defs><clipPath id="08517d0ce6"><path d="M 28 12.898438 L 135 12.898438 L 135 32.398438 L 28 32.398438 Z M 28 12.898438 " clip-rule="nonzero"/></clipPath><clipPath id="ca624b79b7"><path d="M 3 20 L 19 20 L 19 32 L 3 32 Z M 3 20 " clip-rule="nonzero"/></clipPath><clipPath id="df0d47bc34"><path d="M 18.359375 20.511719 L 12.675781 20.511719 L 11.726562 26.09375 L 7.769531 26.09375 L 3.109375 31.617188 C 3.25 31.75 3.4375 31.820312 3.640625 31.820312 L 16 31.820312 C 16.304688 31.820312 16.5625 31.605469 16.605469 31.316406 Z M 18.359375 20.511719 " clip-rule="nonzero"/></clipPath><linearGradient x1="134.566921" gradientTransform="matrix(0.143893, 0, 0, -0.143893, 0.258849, 32.478907)" y1="71.944065" x2="30.569803" gradientUnits="userSpaceOnUse" y2="-9.222198" id="bd1a2740bc"><stop stop-opacity="1" stop-color="rgb(56.498718%, 56.498718%, 56.498718%)" offset="0"/><stop stop-opacity="1" stop-color="rgb(56.68335%, 56.68335%, 56.68335%)" offset="0.125"/><stop stop-opacity="1" stop-color="rgb(57.052612%, 57.052612%, 57.052612%)" offset="0.140625"/><stop stop-opacity="1" stop-color="rgb(57.418823%, 57.418823%, 57.418823%)" offset="0.15625"/><stop stop-opacity="1" stop-color="rgb(57.785034%, 57.785034%, 57.785034%)" offset="0.171875"/><stop stop-opacity="1" stop-color="rgb(58.152771%, 58.152771%, 58.152771%)" offset="0.1875"/><stop stop-opacity="1" stop-color="rgb(58.518982%, 58.518982%, 58.518982%)" offset="0.203125"/><stop stop-opacity="1" stop-color="rgb(58.886719%, 58.886719%, 58.886719%)" offset="0.21875"/><stop stop-opacity="1" stop-color="rgb(59.25293%, 59.25293%, 59.25293%)" offset="0.234375"/><stop stop-opacity="1" stop-color="rgb(59.619141%, 59.619141%, 59.619141%)" offset="0.25"/><stop stop-opacity="1" stop-color="rgb(59.986877%, 59.986877%, 59.986877%)" offset="0.265625"/><stop stop-opacity="1" stop-color="rgb(60.353088%, 60.353088%, 60.353088%)" offset="0.28125"/><stop stop-opacity="1" stop-color="rgb(60.719299%, 60.719299%, 60.719299%)" offset="0.296875"/><stop stop-opacity="1" stop-color="rgb(61.087036%, 61.087036%, 61.087036%)" offset="0.3125"/><stop stop-opacity="1" stop-color="rgb(61.453247%, 61.453247%, 61.453247%)" offset="0.328125"/><stop stop-opacity="1" stop-color="rgb(61.819458%, 61.819458%, 61.819458%)" offset="0.34375"/><stop stop-opacity="1" stop-color="rgb(62.187195%, 62.187195%, 62.187195%)" offset="0.359375"/><stop stop-opacity="1" stop-color="rgb(62.553406%, 62.553406%, 62.553406%)" offset="0.366577"/><stop stop-opacity="1" stop-color="rgb(62.738037%, 62.738037%, 62.738037%)" offset="0.375"/><stop stop-opacity="1" stop-color="rgb(62.921143%, 62.921143%, 62.921143%)" offset="0.390625"/><stop stop-opacity="1" stop-color="rgb(63.287354%, 63.287354%, 63.287354%)" offset="0.40625"/><stop stop-opacity="1" stop-color="rgb(63.653564%, 63.653564%, 63.653564%)" offset="0.421875"/><stop stop-opacity="1" stop-color="rgb(64.021301%, 64.021301%, 64.021301%)" offset="0.4375"/><stop stop-opacity="1" stop-color="rgb(64.387512%, 64.387512%, 64.387512%)" offset="0.453125"/><stop stop-opacity="1" stop-color="rgb(64.753723%, 64.753723%, 64.753723%)" offset="0.46875"/><stop stop-opacity="1" stop-color="rgb(65.12146%, 65.12146%, 65.12146%)" offset="0.484375"/><stop stop-opacity="1" stop-color="rgb(65.487671%, 65.487671%, 65.487671%)" offset="0.5"/><stop stop-opacity="1" stop-color="rgb(65.855408%, 65.855408%, 65.855408%)" offset="0.515625"/><stop stop-opacity="1" stop-color="rgb(66.221619%, 66.221619%, 66.221619%)" offset="0.53125"/><stop stop-opacity="1" stop-color="rgb(66.58783%, 66.58783%, 66.58783%)" offset="0.546875"/><stop stop-opacity="1" stop-color="rgb(66.955566%, 66.955566%, 66.955566%)" offset="0.5625"/><stop stop-opacity="1" stop-color="rgb(67.321777%, 67.321777%, 67.321777%)" offset="0.578125"/><stop stop-opacity="1" stop-color="rgb(67.687988%, 67.687988%, 67.687988%)" offset="0.59375"/><stop stop-opacity="1" stop-color="rgb(68.055725%, 68.055725%, 68.055725%)" offset="0.609375"/><stop stop-opacity="1" stop-color="rgb(68.418884%, 68.418884%, 68.418884%)" offset="0.625"/><stop stop-opacity="1" stop-color="rgb(68.598938%, 68.598938%, 68.598938%)" offset="0.633423"/><stop stop-opacity="1" stop-color="rgb(68.598938%, 68.598938%, 68.598938%)" offset="0.75"/><stop stop-opacity="1" stop-color="rgb(68.598938%, 68.598938%, 68.598938%)" offset="1"/></linearGradient></defs><g clip-path="url(#08517d0ce6)"><path fill="#afafaf" d="M 35.714844 14.292969 C 39.28125 14.292969 41.023438 16.050781 41.023438 18.882812 C 41.023438 21.015625 40.058594 22.292969 38.089844 22.785156 C 40.679688 23.214844 41.960938 24.625 41.960938 27.101562 C 41.960938 29.90625 40.058594 31.820312 36.144531 31.820312 L 28.90625 31.820312 L 28.90625 14.292969 Z M 31.3125 16.582031 L 31.3125 21.804688 L 35.398438 21.804688 C 37.671875 21.804688 38.605469 20.769531 38.605469 19.070312 C 38.605469 17.375 37.597656 16.566406 35.398438 16.566406 Z M 31.3125 23.949219 L 31.3125 29.402344 L 36.21875 29.402344 C 38.519531 29.402344 39.554688 28.566406 39.554688 26.8125 C 39.554688 24.941406 38.5625 23.933594 36.175781 23.933594 Z M 45.871094 13.359375 C 46.691406 13.300781 47.414062 13.921875 47.46875 14.738281 L 47.46875 14.957031 C 47.46875 15.832031 46.75 16.554688 45.871094 16.554688 C 44.996094 16.554688 44.277344 15.832031 44.277344 14.957031 C 44.21875 14.136719 44.835938 13.417969 45.65625 13.359375 C 45.730469 13.34375 45.800781 13.34375 45.871094 13.359375 Z M 44.707031 18.480469 L 47.007812 18.480469 L 47.007812 31.820312 L 44.707031 31.820312 Z M 55.757812 29.574219 C 56.246094 29.5625 56.722656 29.503906 57.199219 29.386719 L 57.199219 31.605469 C 56.695312 31.75 56.175781 31.820312 55.65625 31.820312 C 52.792969 31.820312 51.414062 30.136719 51.414062 27.660156 L 51.414062 20.609375 L 49.253906 20.609375 L 49.253906 18.480469 L 51.414062 18.480469 L 51.414062 15.648438 L 53.644531 15.648438 L 53.644531 18.480469 L 57.199219 18.480469 L 57.199219 20.609375 L 53.644531 20.609375 L 53.644531 27.617188 C 53.644531 28.785156 54.332031 29.574219 55.757812 29.574219 Z M 66.664062 32.078125 C 64.722656 32.078125 63.226562 31.203125 62.421875 29.460938 L 62.421875 31.804688 L 60.117188 31.804688 L 60.117188 12.898438 L 62.433594 12.898438 L 62.433594 20.871094 C 63.285156 19.113281 64.894531 18.207031 66.9375 18.207031 C 70.492188 18.207031 72.277344 21.214844 72.277344 25.144531 C 72.261719 28.914062 70.40625 32.078125 66.664062 32.078125 Z M 66.320312 20.335938 C 64.261719 20.335938 62.433594 21.648438 62.433594 24.609375 L 62.433594 25.675781 C 62.433594 28.640625 64.117188 29.949219 66.074219 29.949219 C 68.664062 29.949219 70.003906 28.238281 70.003906 25.144531 C 69.976562 21.949219 68.695312 20.335938 66.320312 20.335938 Z M 74.664062 18.480469 L 76.96875 18.480469 L 76.96875 26.554688 C 76.96875 28.957031 77.933594 30.023438 80.121094 30.023438 C 82.25 30.023438 83.714844 28.613281 83.714844 25.90625 L 83.714844 18.480469 L 86.019531 18.480469 L 86.019531 31.820312 L 83.714844 31.820312 L 83.714844 29.632812 C 82.882812 31.171875 81.257812 32.121094 79.5 32.09375 C 76.4375 32.09375 74.664062 29.964844 74.664062 26.292969 Z M 98.898438 31.476562 C 98.089844 31.90625 96.867188 32.078125 95.644531 32.078125 C 90.898438 32.078125 88.667969 29.203125 88.667969 25.101562 C 88.667969 21.070312 90.882812 18.195312 95.644531 18.195312 C 96.738281 18.164062 97.832031 18.378906 98.824219 18.855469 L 98.824219 20.984375 C 97.875 20.539062 96.839844 20.324219 95.789062 20.351562 C 92.320312 20.351562 90.910156 22.539062 90.910156 25.128906 C 90.910156 27.71875 92.351562 29.90625 95.847656 29.90625 C 96.882812 29.933594 97.90625 29.777344 98.882812 29.433594 Z M 101.515625 31.820312 L 101.515625 12.898438 L 103.820312 12.898438 L 103.820312 24.726562 L 109.558594 18.480469 L 112.554688 18.480469 L 106.277344 25.027344 L 112.8125 31.820312 L 109.6875 31.820312 L 103.820312 25.574219 L 103.820312 31.820312 Z M 120.410156 32.078125 C 115.417969 32.078125 113.230469 29.203125 113.230469 25.101562 C 113.230469 21.070312 115.472656 18.195312 119.53125 18.195312 C 123.648438 18.195312 125.289062 21.058594 125.289062 25.101562 L 125.289062 26.136719 L 115.546875 26.136719 C 115.863281 28.410156 117.332031 29.878906 120.480469 29.878906 C 121.863281 29.878906 123.242188 29.632812 124.539062 29.160156 L 124.539062 31.289062 C 123.460938 31.878906 121.777344 32.078125 120.410156 32.078125 Z M 115.53125 24.195312 L 122.972656 24.195312 C 122.839844 21.71875 121.71875 20.292969 119.417969 20.292969 C 116.984375 20.28125 115.761719 21.863281 115.515625 24.179688 L 115.515625 24.195312 Z M 133.300781 29.574219 C 133.792969 29.5625 134.265625 29.503906 134.742188 29.386719 L 134.742188 31.605469 C 134.238281 31.75 133.71875 31.820312 133.203125 31.820312 C 130.339844 31.820312 128.957031 30.136719 128.957031 27.660156 L 128.957031 20.609375 L 126.796875 20.609375 L 126.796875 18.480469 L 128.957031 18.480469 L 128.957031 15.648438 L 131.203125 15.648438 L 131.203125 18.480469 L 134.753906 18.480469 L 134.753906 20.609375 L 131.203125 20.609375 L 131.203125 27.617188 C 131.1875 28.785156 131.878906 29.574219 133.300781 29.574219 Z M 133.300781 29.574219 " fill-opacity="1" fill-rule="nonzero"/></g><path fill="#afafaf" d="M 0.878906 14.796875 C 0.53125 14.796875 0.257812 15.058594 0.257812 15.402344 C 0.257812 15.429688 0.257812 15.472656 0.273438 15.503906 L 2.847656 31.128906 C 2.921875 31.519531 3.25 31.820312 3.65625 31.820312 L 16 31.820312 C 16.304688 31.820312 16.5625 31.605469 16.605469 31.316406 L 19.179688 15.515625 C 19.238281 15.1875 19.007812 14.871094 18.675781 14.828125 C 18.648438 14.828125 18.605469 14.8125 18.578125 14.8125 Z M 11.710938 26.09375 L 7.769531 26.09375 L 6.707031 20.511719 L 12.675781 20.511719 Z M 11.710938 26.09375 " fill-opacity="1" fill-rule="nonzero"/><g clip-path="url(#ca624b79b7)"><g clip-path="url(#df0d47bc34)"><path fill="url(#bd1a2740bc)" d="M 3.109375 31.820312 L 3.109375 20.511719 L 18.359375 20.511719 L 18.359375 31.820312 Z M 3.109375 31.820312 " fill-rule="nonzero"/></g></g></svg>