<svg xmlns="http://www.w3.org/2000/svg" xmlns:xlink="http://www.w3.org/1999/xlink" width="500" zoomAndPan="magnify" viewBox="0 0 375 292.499991" height="390" preserveAspectRatio="xMidYMid meet" version="1.0"><defs><g/></defs><path fill="#282828" d="M 155.414062 148.316406 L 180.75 122.980469 L 129.054688 71.28125 C 122.132812 64.363281 122.132812 53.171875 129.054688 46.25 C 135.972656 39.328125 147.164062 39.328125 154.085938 46.25 L 187.5 79.664062 L 220.917969 46.25 C 227.839844 39.328125 239.03125 39.328125 245.949219 46.25 C 252.871094 53.171875 252.871094 64.363281 245.949219 71.28125 L 235.71875 81.511719 L 194.253906 122.980469 L 219.589844 148.316406 L 271.289062 96.617188 C 292.191406 75.714844 292.191406 41.816406 271.289062 20.914062 C 250.382812 0.0078125 216.484375 0.0078125 195.582031 20.914062 L 187.5 28.992188 L 179.421875 20.914062 C 158.519531 0.0078125 124.621094 0.0078125 103.714844 20.914062 C 82.808594 41.816406 82.808594 75.710938 103.714844 96.617188 Z M 155.414062 148.316406 " fill-opacity="1" fill-rule="nonzero"/><path fill="#282828" d="M 345.664062 187.152344 L 353.742188 179.074219 C 374.648438 158.167969 374.648438 124.273438 353.742188 103.371094 C 332.835938 82.464844 298.941406 82.464844 278.039062 103.371094 L 226.339844 155.066406 L 251.675781 180.402344 L 303.375 128.707031 C 310.292969 121.785156 321.488281 121.785156 328.40625 128.707031 C 335.328125 135.625 335.328125 146.816406 328.40625 153.738281 L 294.988281 187.152344 L 328.40625 220.570312 C 335.328125 227.488281 335.328125 238.679688 328.40625 245.601562 C 321.488281 252.523438 310.296875 252.523438 303.375 245.601562 L 293.144531 235.371094 L 187.5 129.730469 L 71.628906 245.601562 C 64.707031 252.523438 53.519531 252.523438 46.597656 245.601562 C 39.675781 238.679688 39.675781 227.492188 46.597656 220.570312 L 80.011719 187.152344 L 46.597656 153.738281 C 39.675781 146.816406 39.675781 135.625 46.597656 128.707031 C 53.519531 121.785156 64.707031 121.785156 71.628906 128.707031 L 123.328125 180.402344 L 148.664062 155.066406 L 96.964844 103.367188 C 76.058594 82.464844 42.164062 82.464844 21.257812 103.367188 C 0.355469 124.273438 0.355469 158.167969 21.257812 179.074219 L 29.339844 187.152344 L 21.257812 195.230469 C 0.355469 216.136719 0.355469 250.03125 21.257812 270.9375 C 42.164062 291.84375 76.058594 291.84375 96.964844 270.9375 L 187.5 180.402344 L 278.039062 270.9375 C 298.941406 291.84375 332.835938 291.84375 353.746094 270.9375 C 374.648438 250.03125 374.648438 216.136719 353.746094 195.230469 Z M 345.664062 187.152344 " fill-opacity="1" fill-rule="nonzero"/><g fill="#282828" fill-opacity="1"><g transform="translate(109.541832, 72.600572)"><g><path d="M 0.65625 0.03125 C 0.5625 0.03125 0.488281 0.00390625 0.4375 -0.046875 C 0.382812 -0.0976562 0.359375 -0.171875 0.359375 -0.265625 C 0.359375 -0.347656 0.382812 -0.414062 0.4375 -0.46875 C 0.488281 -0.519531 0.5625 -0.546875 0.65625 -0.546875 C 0.75 -0.546875 0.820312 -0.519531 0.875 -0.46875 C 0.925781 -0.414062 0.953125 -0.347656 0.953125 -0.265625 C 0.953125 -0.179688 0.925781 -0.109375 0.875 -0.046875 C 0.820312 0.00390625 0.75 0.03125 0.65625 0.03125 Z M 0.65625 0.03125 "/></g></g></g></svg>